PathFileType	4	(X/Y/Z)	C:\Users\86182\Documents\cortex\Trimmed_M4_H3.trc
DataRate	CameraRate	NumFrames	NumMarkers	Units	OrigDataRate	OrigDataStartFrame	OrigNumFrames
100.00	100.00	       140	2	mm	100.00	721	       901
Frame#	Time	gripper			box			
		X1	Y1	Z1	X2	Y2	Z2	

721	7.200	275.89798	150.97581	292.35614	278.91095	147.19771	156.56969	
722	7.210	275.89752	150.98039	292.35669	278.91010	147.19699	156.56845	
723	7.220	275.89920	150.98468	292.35635	278.91016	147.19621	156.56659	
724	7.230	275.90247	150.98846	292.35547	278.91098	147.19557	156.56468	
725	7.240	275.90662	150.99173	292.35449	278.91208	147.19522	156.56332	
726	7.250	275.91086	150.99443	292.35367	278.91330	147.19531	156.56291	
727	7.260	275.91443	150.99638	292.35315	278.91446	147.19588	156.56366	
728	7.270	275.91675	150.99718	292.35291	278.91537	147.19682	156.56541	
729	7.280	275.91769	150.99649	292.35287	278.91565	147.19783	156.56766	
730	7.290	275.91754	150.99435	292.35284	278.91510	147.19867	156.56989	
731	7.300	275.91705	150.99129	292.35284	278.91382	147.19928	156.57196	
732	7.310	275.91690	150.98805	292.35284	278.91214	147.19969	156.57379	
733	7.320	275.91748	150.98526	292.35275	278.91049	147.19991	156.57509	
734	7.330	275.91873	150.98296	292.35245	278.90936	147.19987	156.57558	
735	7.340	275.92035	150.98090	292.35187	278.90909	147.19960	156.57506	
736	7.350	275.92233	150.97893	292.35089	278.90964	147.19902	156.57343	
737	7.360	275.92468	150.97717	292.34955	278.91064	147.19807	156.57074	
738	7.370	275.92709	150.97591	292.34799	278.91159	147.19673	156.56709	
739	7.380	275.92905	150.97516	292.34647	278.91208	147.19495	156.56268	
740	7.390	275.93005	150.97470	292.34521	278.91196	147.19296	156.55806	
741	7.400	275.93002	150.97403	292.34445	278.91138	147.19115	156.55412	
742	7.410	275.92905	150.97269	292.34406	278.91049	147.18988	156.55157	
743	7.420	275.92743	150.97034	292.34384	278.90945	147.18930	156.55075	
744	7.430	275.92529	150.96695	292.34366	278.90823	147.18947	156.55177	
745	7.440	275.92282	150.96278	292.34332	278.90674	147.19031	156.55449	
746	7.450	275.92026	150.95827	292.34271	278.90512	147.19162	156.55835	
747	7.460	275.91766	150.95384	292.34161	278.90353	147.19299	156.56239	
748	7.470	275.91489	150.94987	292.33997	278.90222	147.19403	156.56548	
749	7.480	275.91165	150.94670	292.33795	278.90158	147.19440	156.56664	
750	7.490	275.90836	150.94466	292.33569	278.90192	147.19394	156.56540	
751	7.500	275.90591	150.94391	292.33344	278.90317	147.19273	156.56190	
752	7.510	275.90530	150.94438	292.33133	278.90491	147.19098	156.55693	
753	7.520	275.90674	150.94586	292.32959	278.90656	147.18907	156.55164	
754	7.530	275.90973	150.94809	292.32834	278.90759	147.18742	156.54723	
755	7.540	275.91348	150.95078	292.32776	278.90781	147.18634	156.54456	
756	7.550	275.91745	150.95375	292.32806	278.90729	147.18597	156.54398	
757	7.560	275.92108	150.95706	292.32941	278.90610	147.18636	156.54556	
758	7.570	275.92395	150.96068	292.33191	278.90436	147.18745	156.54913	
759	7.580	275.92599	150.96434	292.33521	278.90225	147.18901	156.55408	
760	7.590	275.92764	150.96759	292.33862	278.90024	147.19069	156.55937	
761	7.600	275.92917	150.97017	292.34155	278.89877	147.19218	156.56400	
762	7.610	275.93066	150.97194	292.34363	278.89816	147.19327	156.56728	
763	7.620	275.93207	150.97302	292.34473	278.89847	147.19385	156.56888	
764	7.630	275.93375	150.97362	292.34476	278.89944	147.19394	156.56874	
765	7.640	275.93628	150.97397	292.34366	278.90082	147.19359	156.56709	
766	7.650	275.94025	150.97430	292.34161	278.90250	147.19298	156.56444	
767	7.660	275.94577	150.97504	292.33917	278.90451	147.19243	156.56169	
768	7.670	275.95239	150.97626	292.33679	278.90665	147.19234	156.55998	
769	7.680	275.95895	150.97765	292.33481	278.90848	147.19284	156.55992	
770	7.690	275.96396	150.97887	292.33347	278.90976	147.19379	156.56128	
771	7.700	275.96634	150.97975	292.33295	278.91034	147.19484	156.56329	
772	7.710	275.96545	150.98001	292.33325	278.91025	147.19559	156.56505	
773	7.720	275.96109	150.97916	292.33429	278.90939	147.19582	156.56596	
774	7.730	275.95380	150.97678	292.33554	278.90778	147.19550	156.56606	
775	7.740	275.94470	150.97307	292.33673	278.90546	147.19492	156.56587	
776	7.750	275.93491	150.96880	292.33780	278.90289	147.19443	156.56606	
777	7.760	275.92557	150.96452	292.33875	278.90045	147.19427	156.56693	
778	7.770	275.91803	150.96031	292.33948	278.89841	147.19443	156.56831	
779	7.780	275.91336	150.95618	292.33978	278.89706	147.19473	156.56972	
780	7.790	275.91208	150.95282	292.33960	278.89685	147.19507	156.57059	
781	7.800	275.91434	150.95126	292.33917	278.89816	147.19524	156.57033	
782	7.810	275.91974	150.95197	292.33862	278.90094	147.19508	156.56857	
783	7.820	275.92731	150.95457	292.33789	278.90472	147.19450	156.56534	
784	7.830	275.93585	150.95854	292.33685	278.90866	147.19354	156.56110	
785	7.840	275.94431	150.96341	292.33557	278.91199	147.19228	156.55646	
786	7.850	275.95135	150.96860	292.33429	278.91422	147.19080	156.55188	
787	7.860	275.95541	150.97330	292.33356	278.91525	147.18929	156.54782	
788	7.870	275.95505	150.97652	292.33398	278.91519	147.18799	156.54485	
789	7.880	275.95004	150.97775	292.33594	278.91425	147.18724	156.54353	
790	7.890	275.94186	150.97748	292.33929	278.91269	147.18723	156.54428	
791	7.900	275.93262	150.97670	292.34351	278.91083	147.18800	156.54706	
792	7.910	275.92407	150.97601	292.34766	278.90897	147.18941	156.55127	
793	7.920	275.91696	150.97536	292.35110	278.90747	147.19102	156.55582	
794	7.930	275.91156	150.97444	292.35318	278.90640	147.19238	156.55952	
795	7.940	275.90814	150.97324	292.35352	278.90570	147.19312	156.56158	
796	7.950	275.90680	150.97195	292.35199	278.90518	147.19305	156.56169	
797	7.960	275.90704	150.97099	292.34900	278.90488	147.19228	156.56003	
798	7.970	275.90799	150.97063	292.34528	278.90491	147.19106	156.55714	
799	7.980	275.90884	150.97067	292.34152	278.90552	147.18971	156.55371	
800	7.990	275.90955	150.97076	292.33826	278.90686	147.18855	156.55032	
801	8.000	275.91055	150.97070	292.33585	278.90866	147.18776	156.54755	
802	8.010	275.91183	150.97043	292.33459	278.91049	147.18744	156.54587	
803	8.020	275.91275	150.96976	292.33472	278.91177	147.18756	156.54550	
804	8.030	275.91272	150.96849	292.33603	278.91214	147.18800	156.54637	
805	8.040	275.91162	150.96683	292.33820	278.91147	147.18863	156.54819	
806	8.050	275.90948	150.96498	292.34067	278.90976	147.18925	156.55051	
807	8.060	275.90659	150.96289	292.34286	278.90738	147.18965	156.55263	
808	8.070	275.90375	150.96039	292.34436	278.90479	147.18967	156.55396	
809	8.080	275.90198	150.95772	292.34509	278.90271	147.18936	156.55431	
810	8.090	275.90207	150.95572	292.34549	278.90152	147.18895	156.55389	
811	8.100	275.90427	150.95535	292.34595	278.90134	147.18854	156.55302	
812	8.110	275.90833	150.95709	292.34641	278.90201	147.18814	156.55179	
813	8.120	275.91370	150.96043	292.34653	278.90329	147.18773	156.55019	
814	8.130	275.91977	150.96436	292.34583	278.90469	147.18721	156.54826	
815	8.140	275.92542	150.96793	292.34424	278.90579	147.18661	156.54631	
816	8.150	275.92874	150.97057	292.34210	278.90610	147.18605	156.54485	
817	8.160	275.92813	150.97176	292.33997	278.90549	147.18568	156.54428	
818	8.170	275.92325	150.97102	292.33807	278.90421	147.18555	156.54462	
819	8.180	275.91553	150.96820	292.33649	278.90262	147.18561	156.54556	
820	8.190	275.90707	150.96378	292.33521	278.90088	147.18571	156.54671	
821	8.200	275.89935	150.95853	292.33450	278.89932	147.18581	156.54767	
822	8.210	275.89270	150.95331	292.33435	278.89832	147.18582	156.54822	
823	8.220	275.88724	150.94878	292.33472	278.89819	147.18588	156.54842	
824	8.230	275.88324	150.94547	292.33548	278.89902	147.18610	156.54854	
825	8.240	275.88120	150.94363	292.33658	278.90067	147.18661	156.54892	
826	8.250	275.88135	150.94333	292.33789	278.90286	147.18748	156.54984	
827	8.260	275.88376	150.94438	292.33911	278.90536	147.18863	156.55127	
828	8.270	275.88797	150.94659	292.34003	278.90781	147.18990	156.55299	
829	8.280	275.89331	150.94971	292.34045	278.91003	147.19101	156.55449	
830	8.290	275.89908	150.95322	292.34033	278.91196	147.19170	156.55513	
831	8.300	275.90463	150.95639	292.33960	278.91360	147.19182	156.55460	
832	8.310	275.90955	150.95871	292.33838	278.91479	147.19148	156.55318	
833	8.320	275.91345	150.96022	292.33716	278.91547	147.19095	156.55159	
834	8.330	275.91620	150.96111	292.33646	278.91550	147.19054	156.55063	
835	8.340	275.91739	150.96135	292.33658	278.91489	147.19043	156.55067	
836	8.350	275.91647	150.96077	292.33759	278.91367	147.19057	156.55161	
837	8.360	275.91309	150.95949	292.33917	278.91190	147.19078	156.55302	
838	8.370	275.90781	150.95790	292.34085	278.90988	147.19098	156.55447	
839	8.380	275.90207	150.95650	292.34219	278.90814	147.19104	156.55548	
840	8.390	275.89743	150.95580	292.34290	278.90723	147.19081	156.55545	
841	8.400	275.89478	150.95602	292.34299	278.90735	147.19022	156.55399	
842	8.410	275.89450	150.95709	292.34244	278.90829	147.18932	156.55139	
843	8.420	275.89642	150.95865	292.34134	278.90967	147.18839	156.54852	
844	8.430	275.90015	150.96024	292.33990	278.91098	147.18765	156.54614	
845	8.440	275.90506	150.96135	292.33844	278.91202	147.18721	156.54459	
846	8.450	275.91031	150.96161	292.33713	278.91266	147.18700	156.54376	
847	8.460	275.91492	150.96091	292.33615	278.91287	147.18692	156.54349	
848	8.470	275.91821	150.95930	292.33551	278.91263	147.18692	156.54359	
849	8.480	275.91974	150.95680	292.33521	278.91199	147.18692	156.54390	
850	8.490	275.91934	150.95340	292.33514	278.91092	147.18690	156.54440	
851	8.500	275.91736	150.94933	292.33521	278.90939	147.18698	156.54535	
852	8.510	275.91467	150.94519	292.33527	278.90750	147.18724	156.54692	
853	8.520	275.91199	150.94168	292.33530	278.90558	147.18767	156.54890	
854	8.530	275.90952	150.93932	292.33533	278.90411	147.18813	156.55069	
855	8.540	275.90735	150.93823	292.33545	278.90359	147.18843	156.55168	
856	8.550	275.90558	150.93829	292.33560	278.90411	147.18854	156.55165	
857	8.560	275.90442	150.93925	292.33572	278.90552	147.18840	156.55063	
858	8.570	275.90396	150.94093	292.33578	278.90744	147.18802	156.54877	
859	8.580	275.90399	150.94321	292.33582	278.90945	147.18742	156.54637	
860	8.590	275.90405	150.94574	292.33575	278.91107	147.18672	156.54390	
